<?xml version="1.0" standalone="no"?>
<!DOCTYPE svg PUBLIC "-//W3C//DTD SVG 20010904//EN"
 "http://www.w3.org/TR/2001/REC-SVG-20010904/DTD/svg10.dtd">
<svg version="1.0" xmlns="http://www.w3.org/2000/svg"
 width="294.000000pt" height="294.000000pt" viewBox="0 0 294.000000 294.000000"
 preserveAspectRatio="xMidYMid meet">
<metadata>
Created by potrace 1.14, written by Peter Selinger 2001-2017
</metadata>
<g transform="translate(0.000000,294.000000) scale(0.100000,-0.100000)"
fill="#000000" stroke="none">
<path d="M1630 2252 c-19 -1 -69 -9 -110 -18 -56 -11 -88 -12 -125 -5 -28 6
-99 9 -160 7 -190 -6 -356 -77 -489 -210 -128 -127 -184 -235 -222 -426 -4
-19 -7 -68 -7 -107 0 -40 -2 -73 -3 -73 -2 0 -87 83 -188 185 -102 102 -187
185 -191 185 -3 0 -30 -24 -59 -54 l-53 -53 386 -387 c212 -213 408 -402 436
-422 77 -54 194 -102 292 -120 87 -16 304 -3 342 20 5 3 35 1 67 -5 300 -57
617 88 774 353 23 38 43 75 44 81 1 7 4 17 7 22 28 47 52 177 53 283 l0 72
186 -185 c102 -102 190 -185 195 -185 6 0 34 24 63 53 l51 52 -387 388 c-213
213 -407 402 -432 419 -132 90 -321 142 -470 130z m236 -192 c111 -38 207
-111 294 -222 98 -126 134 -373 75 -515 -8 -18 -12 -33 -9 -33 8 0 -47 -94
-87 -148 -71 -94 -193 -174 -312 -205 -31 -8 -58 -13 -60 -11 -2 2 18 26 44
54 26 28 61 72 78 98 17 26 34 52 38 57 5 6 9 15 10 20 1 6 11 33 22 60 36 91
37 94 48 170 11 79 6 211 -10 275 -2 8 -7 29 -12 45 -13 51 -94 208 -126 245
-17 19 -36 42 -43 50 -6 8 -31 32 -55 54 l-44 39 47 -7 c26 -4 72 -16 102 -26z
m-727 -37 c-67 -71 -66 -70 -109 -141 -37 -63 -66 -130 -76 -177 -2 -11 -7
-31 -10 -45 -12 -55 -14 -78 -14 -155 1 -98 4 -125 23 -195 42 -149 119 -272
232 -369 l39 -34 -51 6 c-29 3 -83 18 -120 33 -273 108 -429 407 -359 685 16
63 75 189 100 214 7 7 23 26 37 41 35 42 107 98 159 125 49 24 182 69 189 62
3 -2 -15 -24 -40 -50z m369 5 c59 -27 142 -88 192 -141 45 -47 116 -165 112
-184 -2 -7 1 -13 6 -13 5 0 9 -6 10 -12 0 -7 3 -24 7 -38 15 -60 17 -79 17
-145 0 -88 -4 -114 -32 -195 -19 -58 -44 -106 -75 -149 -34 -47 -139 -142
-188 -170 -54 -31 -62 -33 -96 -22 -77 23 -188 107 -259 197 -25 32 -80 138
-87 169 -2 11 -9 40 -16 65 -11 46 -14 166 -5 209 43 198 145 338 310 425 27
14 51 26 53 26 2 0 25 -10 51 -22z"/>
</g>
</svg>
